# File created by Blade
# Date/Time:  Wed Jan 21 16:02:01 2015
# Frame Rate: 120.000 fps
#------------------------------------------------------
:FULLY-SPECIFIED
:DEGREES
1578
root 21.349120 32.436325 -19.474324 -170.310903 4.237800 -179.163000
Spine -28.394302 7.188338 -26.661088
Head 18.011919 -16.196458 4.273405
LeftShoulder -13.178930 -32.849305 0.487949
LeftArm -36.046665 -7.353422 -43.551348
LeftForeArm 4.756839 -0.000000 23.545454
LeftHand -4.031685 -0.000000 5.578807
LeftHandThumb1 -26.253704 0.000000 33.147579
RightShoulder -7.928879 13.658286 -40.411416
RightArm 35.872001 50.102969 -10.109372
RightForeArm -37.496500 -0.000000 14.249652
RightHand -0.246999 -0.000000 -30.975154
RightHandThumb1 -24.326973 -0.000000 -32.862282
LeftUpLeg 14.051098 1.564140 -15.985593
LeftLeg -1.103410 -0.000000 0.000000
LeftFoot -36.379515 18.046878 -16.591513
LeftToeBase 18.082219 -0.000000 -0.000000
RightUpLeg -16.610592 10.211862 24.661610
RightLeg -3.470378 -0.000000 0.000000
RightFoot -4.476276 -29.103482 -0.932059
RightToeBase 22.001234 -0.000000 -0.000000
1579
root 21.364482 32.433525 -19.484531 -170.291557 4.319216 -179.165025
Spine -28.455759 7.183179 -26.778133
Head 17.857425 -16.228281 4.331209
LeftShoulder -13.214412 -32.856099 0.473218
LeftArm -36.033745 -7.312186 -43.506622
LeftForeArm 4.740268 -0.000000 23.405562
LeftHand -4.031472 -0.000000 5.677121
LeftHandThumb1 -26.253704 0.000000 33.147579
RightShoulder -7.913427 13.745304 -40.448857
RightArm 35.880905 50.275772 -9.950092
RightForeArm -37.468612 -0.000000 14.342035
RightHand -0.276900 -0.000000 -31.224605
RightHandThumb1 -24.326973 -0.000000 -32.862282
LeftUpLeg 14.053974 1.641141 -15.978815
LeftLeg -1.134890 -0.000000 0.000000
LeftFoot -36.367683 18.047565 -16.600087
LeftToeBase 17.920537 -0.000000 -0.000000
RightUpLeg -16.584506 10.262320 24.685338
RightLeg -3.463178 -0.000000 0.000000
RightFoot -4.443415 -29.038946 -0.682023
RightToeBase 21.313835 -0.000000 -0.000000
1580
root 21.380201 32.429534 -19.494929 -170.278893 4.403304 -179.170225
Spine -28.494998 7.175016 -26.892854
Head 17.660736 -16.262825 4.391290
LeftShoulder -13.282152 -32.802869 0.508625
LeftArm -35.990636 -7.384890 -43.492126
LeftForeArm 4.833313 -0.000000 23.287524
LeftHand -3.988898 -0.000000 5.541734
LeftHandThumb1 -26.253704 0.000000 33.147579
RightShoulder -7.870470 13.802722 -40.492613
RightArm 35.831182 50.561141 -9.799375
RightForeArm -37.354972 -0.000000 14.482828
RightHand -0.244486 -0.000000 -31.498796
RightHandThumb1 -24.326973 -0.000000 -32.862282
LeftUpLeg 14.061507 1.708433 -15.979993
LeftLeg -1.162219 -0.000000 0.000000
LeftFoot -36.390595 18.071532 -16.608500
LeftToeBase 18.008621 -0.000000 -0.000000
RightUpLeg -16.556168 10.279145 24.714749
RightLeg -3.446005 -0.000000 0.000000
RightFoot -4.436956 -28.962253 -1.028824
RightToeBase 22.019475 -0.000000 -0.000000
1581
root 21.395207 32.426441 -19.503521 -170.259909 4.501985 -179.169738
Spine -28.543299 7.186269 -27.013214
Head 17.466176 -16.341445 4.475178
LeftShoulder -13.328099 -32.776601 0.528186
LeftArm -35.945785 -7.364286 -43.506700
LeftForeArm 4.820743 -0.000000 23.085619
LeftHand -3.917387 -0.000000 5.523306
LeftHandThumb1 -26.253704 0.000000 33.147579
RightShoulder -7.893206 13.930070 -40.510704
RightArm 35.940177 50.739122 -9.577973
RightForeArm -37.209152 -0.000000 14.531332
RightHand -0.167876 -0.000000 -31.548054
RightHandThumb1 -24.326973 -0.000000 -32.862282
LeftUpLeg 14.062823 1.766427 -15.981389
LeftLeg -1.193509 -0.000000 0.000000
LeftFoot -36.407117 18.093490 -16.627183
LeftToeBase 17.974981 -0.000000 -0.000000
RightUpLeg -16.528232 10.305607 24.748404
RightLeg -3.432615 -0.000000 0.000000
RightFoot -4.542137 -28.868492 -0.868757
RightToeBase 22.168640 -0.000000 -0.000000
